<svg width="1000" height="956" viewBox="0 0 1000 956" fill="none" xmlns="http://www.w3.org/2000/svg">
<path d="M433.5 0.5C490 0.5 500 58.5 500 58.5C500 58.5 515.5 0.5 576.5 0.5C637.5 0.5 673 84.5 678 135C683 185.5 661.5 286.5 661.5 286.5C661.5 286.5 751 232 807.5 224.5C864 217 943.5 225 958 276C972.5 327 925 365 925 365C925 365 1000 373 1000 405C1000 437 993 498 925 540.5C857 583 761 585 761 585C761 585 834.5 651.5 853.5 690C872.5 728.5 900 838 862.5 858C825 878 761 864.5 761 864.5C761 864.5 775.5 931.5 742 947.5C708.5 963.5 649 947.5 597 917.5C545 887.5 500 765 500 765C500 765 469 876.5 419 908L417.128 909.18C367.837 940.241 321.844 969.225 270 947.5C217.5 925.5 235.5 858 235.5 858C235.5 858 177 890 153 876.5C129 863 97.5001 770.5 133.5 699C169.5 627.5 243 585 243 585C243 585 119.5 571 92 551.5C64.5 532 -13.5 470 2.50001 413C18.5 356 79.5 365 79.5 365C79.5 365 30.5 324 42 286.5C53.5 249 139 204.5 224.5 224.5C310 244.5 342.5 286.5 342.5 286.5C342.5 286.5 319 182 324 135C329 88 377 0.5 433.5 0.5Z" fill="#FB90AF"/>
<circle cx="501" cy="501" r="50" fill="white"/>
<circle cx="500" cy="359" r="25" fill="white"/>
<circle cx="602" cy="401" r="25" fill="white"/>
<circle cx="643" cy="501" r="25" fill="white"/>
<circle cx="602" cy="603" r="25" fill="white"/>
<circle cx="501" cy="643" r="25" fill="white"/>
<circle cx="400" cy="603" r="25" fill="white"/>
<circle cx="359" cy="502" r="25" fill="white"/>
<circle cx="400" cy="401" r="25" fill="white"/>
<line x1="501" y1="453" x2="501" y2="379" stroke="white" stroke-width="20"/>
<line y1="-10" x2="74" y2="-10" transform="matrix(0 1 1 0 511 548)" stroke="white" stroke-width="20"/>
<line y1="-10" x2="74" y2="-10" transform="matrix(-1 0 0 1 454 512)" stroke="white" stroke-width="20"/>
<line y1="-10" x2="74" y2="-10" transform="matrix(-1 0 0 1 621 512)" stroke="white" stroke-width="20"/>
<line y1="-10" x2="74" y2="-10" transform="matrix(-0.707107 -0.707107 -0.707107 0.707107 459.326 474.326)" stroke="white" stroke-width="20"/>
<line x1="534.929" y1="467.255" x2="587.255" y2="414.929" stroke="white" stroke-width="20"/>
<line y1="-10" x2="74" y2="-10" transform="matrix(0.707107 0.707107 0.707107 -0.707107 542 527)" stroke="white" stroke-width="20"/>
<line x1="466.397" y1="536.071" x2="414.071" y2="588.397" stroke="white" stroke-width="20"/>
</svg>
